<?xml version="1.0" encoding="UTF-8"?>
<svg width="100pt" height="100pt" version="1.1" viewBox="0 0 100 100" xmlns="http://www.w3.org/2000/svg">
 <g>
  <path d="m50 82c8.4883 0 16.625-3.3711 22.629-9.3711 6-6.0039 9.3711-14.141 9.3711-22.629s-3.3711-16.625-9.3711-22.629c-6.0039-6-14.141-9.3711-22.629-9.3711s-16.625 3.3711-22.629 9.3711c-6 6.0039-9.3711 14.141-9.3711 22.629s3.3711 16.625 9.3711 22.629c6.0039 6 14.141 9.3711 22.629 9.3711zm0-56c6.3633 0 12.469 2.5273 16.969 7.0312 4.5039 4.5 7.0312 10.605 7.0312 16.969s-2.5273 12.469-7.0312 16.969c-4.5 4.5039-10.605 7.0312-16.969 7.0312s-12.469-2.5273-16.969-7.0312c-4.5039-4.5-7.0312-10.605-7.0312-16.969s2.5273-12.469 7.0312-16.969c4.5-4.5039 10.605-7.0312 16.969-7.0312z"/>
  <path d="m46 64h8v-10h10v-8h-10v-10h-8v10h-10v8h10z"/>
 </g>
</svg>
