<?xml version="1.0" encoding="UTF-8"?>
<svg width="100pt" height="100pt" version="1.1" viewBox="0 0 100 100" xmlns="http://www.w3.org/2000/svg">
 <g>
  <path d="m50 18c-8.4883 0-16.625 3.3711-22.629 9.3711-6 6.0039-9.3711 14.141-9.3711 22.629s3.3711 16.625 9.3711 22.629c6.0039 6 14.141 9.3711 22.629 9.3711s16.625-3.3711 22.629-9.3711c6-6.0039 9.3711-14.141 9.3711-22.629s-3.3711-16.625-9.3711-22.629c-6.0039-6-14.141-9.3711-22.629-9.3711zm0 56c-6.3633 0-12.469-2.5273-16.969-7.0312-4.5039-4.5-7.0312-10.605-7.0312-16.969s2.5273-12.469 7.0312-16.969c4.5-4.5039 10.605-7.0312 16.969-7.0312s12.469 2.5273 16.969 7.0312c4.5039 4.5 7.0312 10.605 7.0312 16.969s-2.5273 12.469-7.0312 16.969c-4.5 4.5039-10.605 7.0312-16.969 7.0312z"/>
  <path d="m46 48h8v18h-8z"/>
  <path d="m54 38c0 5.332-8 5.332-8 0s8-5.332 8 0"/>
 </g>
</svg>
