<?xml version="1.0" encoding="UTF-8"?>
<svg width="100pt" height="100pt" version="1.1" viewBox="0 0 100 100" xmlns="http://www.w3.org/2000/svg">
 <path d="m75 50c0 13.809-11.191 25-25 25s-25-11.191-25-25 11.191-25 25-25 25 11.191 25 25z"/>
 <path d="m50 20.238c0.82812 0 1.625-0.32812 2.2109-0.91406 0.58594-0.58594 0.91406-1.3828 0.91406-2.2109v-7.7383c0-1.7266-1.3984-3.125-3.125-3.125s-3.125 1.3984-3.125 3.125v7.7383c0 0.82812 0.32812 1.625 0.91406 2.2109 0.58594 0.58594 1.3828 0.91406 2.2109 0.91406z"/>
 <path d="m50 79.762c-1.7266 0-3.125 1.3984-3.125 3.125v7.7383c0 1.7266 1.3984 3.125 3.125 3.125s3.125-1.3984 3.125-3.125v-7.7383c0-0.82812-0.32812-1.625-0.91406-2.2109-0.58594-0.58594-1.3828-0.91406-2.2109-0.91406z"/>
 <path d="m20.238 50c0-0.82812-0.32812-1.625-0.91406-2.2109-0.58594-0.58594-1.3828-0.91406-2.2109-0.91406h-7.7383c-1.7266 0-3.125 1.3984-3.125 3.125s1.3984 3.125 3.125 3.125h7.7383c0.82812 0 1.625-0.32812 2.2109-0.91406 0.58594-0.58594 0.91406-1.3828 0.91406-2.2109z"/>
 <path d="m90.625 46.875h-7.7383c-1.7266 0-3.125 1.3984-3.125 3.125s1.3984 3.125 3.125 3.125h7.7383c1.7266 0 3.125-1.3984 3.125-3.125s-1.3984-3.125-3.125-3.125z"/>
 <path d="m24.535 28.953c1.2266 1.1875 3.1758 1.168 4.3828-0.035156 1.2031-1.207 1.2227-3.1562 0.035156-4.3828l-5.4727-5.4727h0.003906c-1.2266-1.1836-3.1758-1.1641-4.3828 0.039062-1.2031 1.207-1.2227 3.1562-0.039062 4.3828z"/>
 <path d="m75.465 71.047c-1.2266-1.1953-3.1836-1.1836-4.3906 0.027344-1.2109 1.207-1.2227 3.1641-0.03125 4.3906l5.4727 5.4727c1.2266 1.1914 3.1836 1.1797 4.3906-0.03125 1.2109-1.207 1.2227-3.1641 0.03125-4.3906z"/>
 <path d="m73.254 29.871c0.82812 0 1.625-0.32812 2.2109-0.91797l5.4727-5.4727v0.003906c1.1914-1.2266 1.1797-3.1836-0.03125-4.3906-1.207-1.2109-3.1641-1.2227-4.3906-0.03125l-5.4727 5.4727c-0.89062 0.89453-1.1602 2.2383-0.67578 3.4062 0.48437 1.168 1.625 1.9297 2.8867 1.9297z"/>
 <path d="m24.535 71.047-5.4727 5.4727v-0.003906c-0.59766 0.58594-0.9375 1.3828-0.94141 2.2188s0.32422 1.6406 0.91406 2.2305c0.59375 0.58984 1.3945 0.91797 2.2305 0.91406s1.6328-0.34375 2.2188-0.94141l5.4727-5.4727c1.1914-1.2266 1.1797-3.1836-0.03125-4.3906-1.207-1.2109-3.1641-1.2227-4.3906-0.027344z"/>
</svg>
